<svg id="Layer_1" enable-background="new 0 0 482.09 482.09" height="512" viewBox="0 0 482.09 482.09" width="512" xmlns="http://www.w3.org/2000/svg"><g><g><path d="m363.341 272.4h-244.592c-40.153 0-72.704 32.55-72.704 72.704v129.486h390v-129.487c0-40.153-32.551-72.703-72.704-72.703z" fill="#fcad42"/><path d="m363.341 272.4h-20c40.153 0 72.704 32.55 72.704 72.704v109.486h-370v20h390v-129.487c0-40.153-32.551-72.703-72.704-72.703z" fill="#ff905b"/><path d="m121.17 222.5h239.875v49.9h-239.875z" fill="#fcad42"/><path d="m341.045 222.5h20v49.9h-20z" fill="#ff905b"/><path d="m181.17 272.4h119.875v202.19h-119.875z" fill="#94b7f7"/><path d="m181.17 454.59h119.875v20h-119.875z" fill="#5b92f2"/><path d="m346.045 222.5h-210v-125c0-49.706 40.294-90 90-90h30c49.706 0 90 40.294 90 90z" fill="#6987a0"/><path d="m241.045 65c57.99 0 105 14.551 105 32.5 0-49.706-40.294-90-90-90h-30c-49.706 0-90 40.294-90 90 0-17.949 47.01-32.5 105-32.5z" fill="#fcad42"/><path d="m241.045 65c-22.938 0-44.154 2.278-61.426 6.141-7.126 11.227-11.277 24.505-11.277 38.713v54.604c0 23.655 11.464 44.76 29.107 58.042h87.042c17.643-13.282 29.107-34.387 29.107-58.042v-54.604c0-14.225-4.161-27.518-11.303-38.753-17.241-3.839-38.391-6.101-61.25-6.101z" fill="#fef2e2"/><path d="m302.294 71.101c-6.544-1.457-14.861-2.84-22.411-3.806l2.411 3.806c7.142 11.235 11.303 24.528 11.303 38.753v54.604c0 23.655-11.464 44.76-29.107 58.042h20c17.643-13.282 29.107-34.387 29.107-58.042v-54.604c0-14.225-4.161-27.518-11.303-38.753z" fill="#ffe1ba"/><path d="m156.532 342.5h168.875v90h-168.875z" fill="#6987a0"/><path d="m305.407 342.5v70h-148.875v20h168.875v-90z" fill="#57758d"/><path d="m188.732 372.5h44.875v28.667h-44.875z" fill="#94b7f7"/><path d="m241.045 65c57.99 0 105 14.551 105 32.5 0-49.706-40.294-90-90-90h-30c-49.706 0-90 40.294-90 90 0-17.949 47.01-32.5 105-32.5z" fill="#94b7f7"/><path d="m241.045 35c-40.265 0-75.229 7.016-92.846 17.313-7.726 13.28-12.154 28.716-12.154 45.187 0-17.949 47.01-32.5 105-32.5s105 14.551 105 32.5c0-16.471-4.428-31.906-12.154-45.187-17.617-10.297-52.581-17.313-92.846-17.313z" fill="#fcad42"/><g fill="#ff905b"><path d="m221.045 65c-33.615 0-63.538 4.89-82.756 12.496-1.462 6.434-2.244 13.127-2.244 20.004 0-16.905 41.701-30.793 95-32.352-3.292-.097-6.627-.148-10-.148z"/><path d="m333.891 52.313c-7.795-4.556-18.991-8.468-32.535-11.416 4.692 2.734 8.894 6.429 12.535 11.416 4.5 7.736 7.871 16.206 9.91 25.183 13.936 5.516 22.244 12.459 22.244 20.004 0-16.471-4.428-31.906-12.154-45.187z"/></g></g><g><g><path d="m279.303 311.9h-15v-15h15zm-30 0h-15v-15h15zm-30 0h-15v-15h15z" fill="#fff"/></g><g><path d="m443.545 357v-11.896c0-18.559-6.353-35.651-16.976-49.256l12.674-19.805-12.635-8.085-10.67 16.674c-12.867-11.206-29.32-18.381-47.393-19.545v-50.087h-15v-97.469h14.833v14.969h15v-44.937h-15v14.969h-14.833v-5.032c0-53.762-43.738-97.5-97.5-97.5h-30c-53.762 0-97.5 43.738-97.5 97.5v5.031h-15v-14.968h-15v44.937h15v-14.969h15v29.27h15v-49.301c0-3.972 7.544-9.704 22.04-14.678-3.122 8.635-4.744 17.766-4.744 27.032v54.604c0 18.459 6.565 36.352 18.107 50.542h-35.404v-53.5h-15v53.5h-14.874v50.078c-18.102 1.138-34.584 8.306-47.474 19.516l-10.646-16.636-12.635 8.085 12.644 19.757c-10.645 13.613-17.014 30.723-17.014 49.304v136.986h405v-109.59h-15v22.167h-23.167v15h23.167v57.423h-52.431v-92.396l41.765-65.266c6.734 10.259 10.666 22.514 10.666 35.675v11.897zm-105-142h-35.555c11.542-14.19 18.107-32.083 18.107-50.542v-54.604c0-9.287-1.629-18.438-4.765-27.09 14.607 4.987 22.212 10.748 22.212 14.736v117.5zm-82.5-200c20.698 0 39.625 7.679 54.124 20.315-19.268-4.973-43.54-7.815-69.124-7.815s-49.856 2.842-69.124 7.815c14.499-12.636 33.426-20.315 54.124-20.315zm-109.214 59.503c1.703-5.858 4.026-11.452 6.917-16.697 17.512-9.333 51.368-15.306 87.297-15.306s69.785 5.973 87.297 15.306c2.891 5.244 5.214 10.839 6.917 16.697-4.701-2.498-10.529-4.913-17.75-7.149-20.531-6.354-47.686-9.854-76.464-9.854s-55.933 3.5-76.464 9.854c-7.222 2.236-13.049 4.651-17.75 7.149zm29.01 89.955v-54.604c0-11.264 2.951-22.289 8.544-32.08 15.006-3.132 33.966-5.274 56.659-5.274 22.606 0 41.508 2.126 56.486 5.238 5.608 9.8 8.566 20.837 8.566 32.116v54.604c0 19.471-9 38.184-24.191 50.542h-81.874c-15.19-12.358-24.19-31.071-24.19-50.542zm177.704 65.542v34.9h-224.875v-34.9zm-60 210v27.09h-104.875v-27.09zm-129.513-15v-75h153.875v75zm24.638-90v-55.1h104.875v55.1zm-69.921-55.1h54.921v55.1h-24.638v105h24.638v27.09h-52.625v-96.784l-46.665-72.923c11.647-10.837 27.243-17.483 44.369-17.483zm-65.204 130.1h22.5v-15h-22.5v-49.896c0-13.185 3.945-25.459 10.701-35.729l41.799 65.32v92.396h-52.5zm307.569-39.694v96.784h-52.569v-27.09h24.362v-105h-24.362v-55.1h54.796c17.147 0 32.759 6.663 44.411 17.524z"/><path d="m201.452 131.04h15.125v15h-15.125z"/><path d="m261.327 131.04h15.125v15h-15.125z"/><path d="m256.045 365h15v15h-15z"/><path d="m286.045 365h15v15h-15z"/><path d="m256.045 395h15v15h-15z"/><path d="m286.045 395h15v15h-15z"/><path d="m181.232 408.667h59.875v-43.667h-59.875zm15-28.667h29.875v13.667h-29.875z"/></g></g></g></svg>